<?xml version="1.0" encoding="UTF-8" standalone="no"?>
<svg
   width="17.608"
   height="19.075193"
   viewBox="-1953 -2031 109.1696 118.2662"
   version="1.1"
   id="svg1"
   xmlns="http://www.w3.org/2000/svg"
   xmlns:svg="http://www.w3.org/2000/svg"
   xmlns:rdf="http://www.w3.org/1999/02/22-rdf-syntax-ns#"
   xmlns:cc="http://creativecommons.org/ns#"
   xmlns:dc="http://purl.org/dc/elements/1.1/">
  <defs
     id="defs1" />
  <title
     id="title1">maple leaf from the flag of Canada</title>
  <path
     fill="#ff0000"
     d="m -1900.1512,-1933.0015 0.868,-16.6445 a 1.8323779,1.8323779 0 0 0 -2.141,-1.8909 l -16.568,2.912 2.2364,-6.1712 a 1.2537325,1.2537325 0 0 0 -0.3847,-1.4091 l -18.1507,-14.6976 4.0897,-1.9096 a 1.2537325,1.2537325 0 0 0 0.6552,-1.5231 l -3.5876,-11.0334 10.4547,2.2193 a 1.2537325,1.2537325 0 0 0 1.4075,-0.7336 l 2.0252,-4.7636 8.1589,8.7563 a 1.2537325,1.2537325 0 0 0 2.141,-1.0994 l -3.9348,-20.2918 6.3073,3.6455 a 1.2537325,1.2537325 0 0 0 1.7546,-0.5208 l 6.4043,-12.5753 6.4043,12.5753 a 1.2537325,1.2537325 0 0 0 1.7546,0.5208 l 6.3072,-3.6455 -3.9348,20.2918 a 1.2537325,1.2537325 0 0 0 2.1411,1.0994 l 8.1588,-8.7563 2.0253,4.7636 a 1.2537325,1.2537325 0 0 0 1.4074,0.7336 l 10.4548,-2.2193 -3.5876,11.0334 a 1.2537325,1.2537325 0 0 0 0.6552,1.5231 l 4.0897,1.9096 -18.1507,14.6976 a 1.2537325,1.2537325 0 0 0 -0.3847,1.4091 l 2.2363,6.1712 -16.568,-2.912 a 1.8323779,1.8323779 0 0 0 -2.141,1.8909 l 0.868,16.6445 z"
     id="path1"
     style="fill:#6e6a86;fill-opacity:1;stroke-width:0.0192876" />
  <metadata
     id="metadata1">
    <rdf:RDF>
      <cc:Work
         rdf:about="">
        <dc:title>maple leaf from the flag of Canada</dc:title>
      </cc:Work>
    </rdf:RDF>
  </metadata>
</svg>
